<svg xmlns="http://www.w3.org/2000/svg" width="600" height="400" viewBox="0 0 600 400"><rect width="100%" height="100%" fill="#DDDDDD"/><path fill="#999999" d="m167.825 179.805-3.34 5.29q-.59.95-1.25 1.34-.65.39-1.66.39-1.07 0-2.29-.6-1.22-.59-2.83-1.34-1.6-.74-3.66-1.33-2.05-.6-4.85-.6-4.34 0-6.81 1.85-2.47 1.84-2.47 4.81 0 1.97 1.28 3.31t3.39 2.35 4.79 1.81q2.68.81 5.45 1.76 2.76.95 5.44 2.17t4.79 3.09q2.11 1.88 3.39 4.5 1.28 2.61 1.28 6.3 0 4.41-1.58 8.12-1.57 3.72-4.67 6.43-3.09 2.71-7.64 4.22-4.55 1.52-10.5 1.52-3.16 0-6.16-.56-3.01-.57-5.77-1.58-2.77-1.01-5.12-2.38t-4.14-2.98l3.39-5.59q.66-1.01 1.55-1.55.89-.53 2.26-.53t2.59.77q1.22.78 2.83 1.67 1.6.89 3.78 1.66 2.17.78 5.5.78 2.62 0 4.49-.63 1.88-.62 3.1-1.63t1.78-2.35q.57-1.34.57-2.77 0-2.14-1.28-3.51t-3.39-2.38q-2.12-1.01-4.82-1.81-2.71-.81-5.54-1.76-2.82-.95-5.53-2.23t-4.82-3.24q-2.11-1.97-3.39-4.82-1.28-2.86-1.28-6.91 0-3.74 1.49-7.14 1.48-3.39 4.37-5.92 2.89-2.52 7.2-4.04t9.97-1.52q6.3 0 11.48 2.08 5.18 2.09 8.63 5.48m26.41-33.98v33.92q3.57-3.33 7.86-5.42 4.28-2.08 10.05-2.08 5 0 8.87 1.7 3.87 1.69 6.45 4.76 2.59 3.06 3.93 7.32 1.34 4.25 1.34 9.37v38.85h-14.7v-38.85q0-5.6-2.55-8.66-2.56-3.07-7.8-3.07-3.81 0-7.14 1.73t-6.31 4.7v44.15h-14.69v-88.42zm65.39 31.06.9 6.9q2.85-5.47 6.78-8.59 3.93-3.13 9.28-3.13 4.23 0 6.79 1.85l-.96 11q-.29 1.08-.86 1.52-.56.45-1.52.45-.89 0-2.64-.3-1.76-.3-3.43-.3-2.44 0-4.34.72-1.9.71-3.42 2.05t-2.68 3.24q-1.16 1.91-2.17 4.35v37.6h-14.7v-61.05h8.63q2.26 0 3.15.81.9.8 1.19 2.88m31.9-3.69h14.75v61.05h-14.75zm16.78-17.79q0 1.91-.78 3.57-.77 1.67-2.05 2.92t-3.01 1.99q-1.72.74-3.68.74-1.91 0-3.6-.74-1.7-.74-2.95-1.99t-1.99-2.92q-.75-1.66-.75-3.57 0-1.96.75-3.69.74-1.72 1.99-2.97t2.95-1.99q1.69-.75 3.6-.75 1.96 0 3.68.75 1.73.74 3.01 1.99t2.05 2.97q.78 1.73.78 3.69m27.66 78.84h-14.69v-61.05h8.98q2.86 0 3.75 2.68l.95 4.52q1.61-1.78 3.36-3.27 1.76-1.49 3.75-2.56 2-1.07 4.29-1.69 2.29-.63 5.02-.63 5.78 0 9.49 3.12 3.72 3.13 5.57 8.3 1.43-3.03 3.57-5.2t4.7-3.54 5.44-2.02q2.89-.66 5.8-.66 5.06 0 8.99 1.55 3.92 1.54 6.6 4.52 2.68 2.97 4.08 7.26 1.4 4.28 1.4 9.82v38.85h-14.7v-38.85q0-5.83-2.56-8.78t-7.5-2.95q-2.26 0-4.19.78-1.93.77-3.39 2.23t-2.29 3.66q-.84 2.2-.84 5.06v38.85h-14.75v-38.85q0-6.13-2.47-8.93t-7.23-2.8q-3.21 0-5.98 1.58t-5.15 4.32zm99.67-43.2v27.37q2.49 3.04 5.44 4.29t6.4 1.25q3.33 0 6.01-1.25 2.67-1.25 4.55-3.81 1.87-2.56 2.88-6.46 1.01-3.89 1.01-9.19 0-5.35-.86-9.07t-2.47-6.04q-1.6-2.32-3.89-3.39-2.3-1.08-5.21-1.08-4.58 0-7.8 1.94-3.21 1.93-6.06 5.44m-1.97-15.17 1.19 5.65q3.75-4.22 8.51-6.84t11.19-2.62q4.99 0 9.13 2.08 4.14 2.09 7.14 6.04 3 3.96 4.64 9.76t1.64 13.3q0 6.84-1.85 12.67-1.84 5.83-5.26 10.12-3.42 4.28-8.27 6.69t-10.86 2.41q-5.12 0-8.75-1.57-3.63-1.58-6.48-4.38v24.99h-14.7v-80.98h8.98q2.86 0 3.75 2.68"/></svg>
